{
    "asset" : {
        "generator" : "Khronos glTF Blender I/O v3.4.50",
        "version" : "2.0"
    },
    "scene" : 0,
    "scenes" : [
        {
            "name" : "Scene",
            "nodes" : [
                4
            ]
        }
    ],
    "nodes" : [
        {
            "mesh" : 0,
            "name" : "C#_C#_0",
            "scale" : [
                0.011828321032226086,
                0.011828324757516384,
                0.01182832382619381
            ]
        },
        {
            "children" : [
                0
            ],
            "name" : "C#",
            "rotation" : [
                -0.70710688829422,
                0,
                0,
                0.7071066498756409
            ],
            "scale" : [
                120,
                199.99996948242188,
                120
            ]
        },
        {
            "children" : [
                1
            ],
            "name" : "RootNode"
        },
        {
            "children" : [
                2
            ],
            "name" : "c307ceaf8e0a472bb8c4f871a1069498.fbx",
            "rotation" : [
                0.70710688829422,
                0,
                0,
                0.7071066498756409
            ],
            "scale" : [
                0.009999999776482582,
                0.009999998845160007,
                0.009999998845160007
            ]
        },
        {
            "children" : [
                3
            ],
            "name" : "Sketchfab_model",
            "rotation" : [
                -0.70710688829422,
                0,
                0,
                0.7071066498756409
            ]
        }
    ],
    "materials" : [
        {
            "doubleSided" : true,
            "name" : "material",
            "normalTexture" : {
                "index" : 0
            },
            "pbrMetallicRoughness" : {
                "baseColorTexture" : {
                    "index" : 1
                },
                "metallicRoughnessTexture" : {
                    "index" : 2
                }
            }
        }
    ],
    "meshes" : [
        {
            "name" : "C#_C#_0",
            "primitives" : [
                {
                    "attributes" : {
                        "POSITION" : 0,
                        "TEXCOORD_0" : 1,
                        "TEXCOORD_1" : 2,
                        "TEXCOORD_2" : 3,
                        "NORMAL" : 4
                    },
                    "indices" : 5,
                    "material" : 0
                }
            ]
        }
    ],
    "textures" : [
        {
            "sampler" : 0,
            "source" : 0
        },
        {
            "sampler" : 0,
            "source" : 1
        },
        {
            "sampler" : 0,
            "source" : 2
        }
    ],
    "images" : [
        {
            "bufferView" : 6,
            "mimeType" : "image/png",
            "name" : "material_normal"
        },
        {
            "bufferView" : 7,
            "mimeType" : "image/png",
            "name" : "material_baseColor"
        },
        {
            "bufferView" : 8,
            "mimeType" : "image/png",
            "name" : "material_metallicRoughness"
        }
    ],
    "accessors" : [
        {
            "bufferView" : 0,
            "componentType" : 5126,
            "count" : 2777,
            "max" : [
                29.293880462646484,
                2.5970253944396973,
                32.86555099487305
            ],
            "min" : [
                -29.293880462646484,
                -3.8145389556884766,
                -32.86555099487305
            ],
            "type" : "VEC3"
        },
        {
            "bufferView" : 1,
            "componentType" : 5126,
            "count" : 2777,
            "type" : "VEC2"
        },
        {
            "bufferView" : 2,
            "componentType" : 5126,
            "count" : 2777,
            "type" : "VEC2"
        },
        {
            "bufferView" : 3,
            "componentType" : 5126,
            "count" : 2777,
            "type" : "VEC2"
        },
        {
            "bufferView" : 4,
            "componentType" : 5126,
            "count" : 2777,
            "type" : "VEC3"
        },
        {
            "bufferView" : 5,
            "componentType" : 5123,
            "count" : 4632,
            "type" : "SCALAR"
        }
    ],
    "bufferViews" : [
        {
            "buffer" : 0,
            "byteLength" : 33324,
            "byteOffset" : 0,
            "target" : 34962
        },
        {
            "buffer" : 0,
            "byteLength" : 22216,
            "byteOffset" : 33324,
            "target" : 34962
        },
        {
            "buffer" : 0,
            "byteLength" : 22216,
            "byteOffset" : 55540,
            "target" : 34962
        },
        {
            "buffer" : 0,
            "byteLength" : 22216,
            "byteOffset" : 77756,
            "target" : 34962
        },
        {
            "buffer" : 0,
            "byteLength" : 33324,
            "byteOffset" : 99972,
            "target" : 34962
        },
        {
            "buffer" : 0,
            "byteLength" : 9264,
            "byteOffset" : 133296,
            "target" : 34963
        },
        {
            "buffer" : 0,
            "byteLength" : 7747,
            "byteOffset" : 142560
        },
        {
            "buffer" : 0,
            "byteLength" : 12129,
            "byteOffset" : 150308
        },
        {
            "buffer" : 0,
            "byteLength" : 605,
            "byteOffset" : 162440
        }
    ],
    "samplers" : [
        {
            "magFilter" : 9729,
            "minFilter" : 9987
        }
    ],
    "buffers" : [
        {
            "byteLength" : 163048,
            "uri" : "data:application/octet-stream;base64,"
        }
    ]
}
