{
    "asset" : {
        "generator" : "Khronos glTF Blender I/O v3.4.50",
        "version" : "2.0"
    },
    "extensionsUsed" : [
        "KHR_materials_specular",
        "KHR_materials_ior"
    ],
    "scene" : 0,
    "scenes" : [
        {
            "name" : "Scene",
            "nodes" : [
                0,
                1,
                2,
                3
            ]
        }
    ],
    "nodes" : [
        {
            "mesh" : 0,
            "name" : "Sphere.009",
            "rotation" : [
                0.4983232915401459,
                -0.054861586540937424,
                -0.023062268272042274,
                0.8649463653564453
            ],
            "scale" : [
                0.15000000596046448,
                0.15000000596046448,
                0.15000000596046448
            ]
        },
        {
            "mesh" : 1,
            "name" : "BezierCircle",
            "rotation" : [
                -0.3248952031135559,
                -0.024189412593841553,
                0.5010479092597961,
                0.8017536997795105
            ],
            "scale" : [
                0.5,
                0.5,
                0.5
            ]
        },
        {
            "mesh" : 2,
            "name" : "BezierCircle.001",
            "rotation" : [
                -0.3248952627182007,
                0.024189447984099388,
                -0.5010479092597961,
                0.8017536997795105
            ],
            "scale" : [
                0.5,
                0.5,
                0.5
            ]
        },
        {
            "mesh" : 3,
            "name" : "BezierCircle.002",
            "rotation" : [
                0.9682615995407104,
                0,
                0,
                0.24993884563446045
            ],
            "scale" : [
                0.5,
                0.5,
                0.5
            ]
        }
    ],
    "materials" : [
        {
            "doubleSided" : true,
            "extensions" : {
                "KHR_materials_specular" : {
                    "specularColorFactor" : [
                        0.3981430894914563,
                        0.3981430894914563,
                        0.3981430894914563
                    ]
                },
                "KHR_materials_ior" : {
                    "ior" : 1.4500000476837158
                }
            },
            "name" : "Material.052",
            "pbrMetallicRoughness" : {
                "baseColorFactor" : [
                    0.07839652895927429,
                    0.43349820375442505,
                    0.8000000715255737,
                    1
                ],
                "metallicFactor" : 0,
                "roughnessFactor" : 0.3560885787010193
            }
        }
    ],
    "meshes" : [
        {
            "name" : "Sphere.015",
            "primitives" : [
                {
                    "attributes" : {
                        "POSITION" : 0,
                        "TEXCOORD_0" : 1,
                        "NORMAL" : 2
                    },
                    "indices" : 3,
                    "material" : 0
                }
            ]
        },
        {
            "name" : "BezierCircle",
            "primitives" : [
                {
                    "attributes" : {
                        "POSITION" : 4,
                        "TEXCOORD_0" : 5,
                        "NORMAL" : 6
                    },
                    "indices" : 7,
                    "material" : 0
                }
            ]
        },
        {
            "name" : "BezierCircle.001",
            "primitives" : [
                {
                    "attributes" : {
                        "POSITION" : 8,
                        "TEXCOORD_0" : 9,
                        "NORMAL" : 10
                    },
                    "indices" : 7,
                    "material" : 0
                }
            ]
        },
        {
            "name" : "BezierCircle.002",
            "primitives" : [
                {
                    "attributes" : {
                        "POSITION" : 11,
                        "TEXCOORD_0" : 12,
                        "NORMAL" : 13
                    },
                    "indices" : 7,
                    "material" : 0
                }
            ]
        }
    ],
    "accessors" : [
        {
            "bufferView" : 0,
            "componentType" : 5126,
            "count" : 1984,
            "max" : [
                0.9999997019767761,
                1,
                0.9999994039535522
            ],
            "min" : [
                -0.9999990463256836,
                -1,
                -0.9999987483024597
            ],
            "type" : "VEC3"
        },
        {
            "bufferView" : 1,
            "componentType" : 5126,
            "count" : 1984,
            "type" : "VEC2"
        },
        {
            "bufferView" : 2,
            "componentType" : 5126,
            "count" : 1984,
            "type" : "VEC3"
        },
        {
            "bufferView" : 3,
            "componentType" : 5123,
            "count" : 2880,
            "type" : "SCALAR"
        },
        {
            "bufferView" : 4,
            "componentType" : 5126,
            "count" : 833,
            "max" : [
                1.0603221654891968,
                0.06032215431332588,
                1.0498428344726562
            ],
            "min" : [
                -1.0603221654891968,
                -0.06032215431332588,
                -1.0498428344726562
            ],
            "type" : "VEC3"
        },
        {
            "bufferView" : 5,
            "componentType" : 5126,
            "count" : 833,
            "type" : "VEC2"
        },
        {
            "bufferView" : 6,
            "componentType" : 5126,
            "count" : 833,
            "type" : "VEC3"
        },
        {
            "bufferView" : 7,
            "componentType" : 5123,
            "count" : 4608,
            "type" : "SCALAR"
        },
        {
            "bufferView" : 8,
            "componentType" : 5126,
            "count" : 833,
            "max" : [
                1.0603221654891968,
                0.06032215431332588,
                1.0498428344726562
            ],
            "min" : [
                -1.0603221654891968,
                -0.06032215431332588,
                -1.0498428344726562
            ],
            "type" : "VEC3"
        },
        {
            "bufferView" : 9,
            "componentType" : 5126,
            "count" : 833,
            "type" : "VEC2"
        },
        {
            "bufferView" : 10,
            "componentType" : 5126,
            "count" : 833,
            "type" : "VEC3"
        },
        {
            "bufferView" : 11,
            "componentType" : 5126,
            "count" : 833,
            "max" : [
                1.0603221654891968,
                0.06032215431332588,
                1.0498428344726562
            ],
            "min" : [
                -1.0603221654891968,
                -0.06032215431332588,
                -1.0498428344726562
            ],
            "type" : "VEC3"
        },
        {
            "bufferView" : 12,
            "componentType" : 5126,
            "count" : 833,
            "type" : "VEC2"
        },
        {
            "bufferView" : 13,
            "componentType" : 5126,
            "count" : 833,
            "type" : "VEC3"
        }
    ],
    "bufferViews" : [
        {
            "buffer" : 0,
            "byteLength" : 23808,
            "byteOffset" : 0,
            "target" : 34962
        },
        {
            "buffer" : 0,
            "byteLength" : 15872,
            "byteOffset" : 23808,
            "target" : 34962
        },
        {
            "buffer" : 0,
            "byteLength" : 23808,
            "byteOffset" : 39680,
            "target" : 34962
        },
        {
            "buffer" : 0,
            "byteLength" : 5760,
            "byteOffset" : 63488,
            "target" : 34963
        },
        {
            "buffer" : 0,
            "byteLength" : 9996,
            "byteOffset" : 69248,
            "target" : 34962
        },
        {
            "buffer" : 0,
            "byteLength" : 6664,
            "byteOffset" : 79244,
            "target" : 34962
        },
        {
            "buffer" : 0,
            "byteLength" : 9996,
            "byteOffset" : 85908,
            "target" : 34962
        },
        {
            "buffer" : 0,
            "byteLength" : 9216,
            "byteOffset" : 95904,
            "target" : 34963
        },
        {
            "buffer" : 0,
            "byteLength" : 9996,
            "byteOffset" : 105120,
            "target" : 34962
        },
        {
            "buffer" : 0,
            "byteLength" : 6664,
            "byteOffset" : 115116,
            "target" : 34962
        },
        {
            "buffer" : 0,
            "byteLength" : 9996,
            "byteOffset" : 121780,
            "target" : 34962
        },
        {
            "buffer" : 0,
            "byteLength" : 9996,
            "byteOffset" : 131776,
            "target" : 34962
        },
        {
            "buffer" : 0,
            "byteLength" : 6664,
            "byteOffset" : 141772,
            "target" : 34962
        },
        {
            "buffer" : 0,
            "byteLength" : 9996,
            "byteOffset" : 148436,
            "target" : 34962
        }
    ],
    "buffers" : [
        {
            "byteLength" : 158432,
            "uri" : "data:application/octet-stream;base64,"
        }
    ]
}
