{
    "asset" : {
        "generator" : "Khronos glTF Blender I/O v3.4.50",
        "version" : "2.0"
    },
    "scene" : 0,
    "scenes" : [
        {
            "name" : "Scene",
            "nodes" : [
                0,
                1
            ]
        }
    ],
    "nodes" : [
        {
            "name" : "9719b2e6c03b4f1587e1b5a882fe74e0.obj.cleaner.gles"
        },
        {
            "mesh" : 0,
            "name" : "Object_3",
            "scale" : [
                0.3400000035762787,
                0.3400000035762787,
                0.7359409332275391
            ],
            "translation" : [
                -1.249999761581421,
                -1.0999999046325684,
                0
            ]
        }
    ],
    "materials" : [
        {
            "doubleSided" : true,
            "name" : "Matriau",
            "pbrMetallicRoughness" : {}
        }
    ],
    "meshes" : [
        {
            "name" : "Object_0",
            "primitives" : [
                {
                    "attributes" : {
                        "POSITION" : 0,
                        "TEXCOORD_0" : 1,
                        "NORMAL" : 2
                    },
                    "indices" : 3,
                    "material" : 0
                }
            ]
        }
    ],
    "accessors" : [
        {
            "bufferView" : 0,
            "componentType" : 5126,
            "count" : 430,
            "max" : [
                6.255815029144287,
                6.432082176208496,
                0.20000000298023224
            ],
            "min" : [
                0,
                0,
                0
            ],
            "type" : "VEC3"
        },
        {
            "bufferView" : 1,
            "componentType" : 5126,
            "count" : 430,
            "type" : "VEC2"
        },
        {
            "bufferView" : 2,
            "componentType" : 5126,
            "count" : 430,
            "type" : "VEC3"
        },
        {
            "bufferView" : 3,
            "componentType" : 5123,
            "count" : 876,
            "type" : "SCALAR"
        }
    ],
    "bufferViews" : [
        {
            "buffer" : 0,
            "byteLength" : 5160,
            "byteOffset" : 0,
            "target" : 34962
        },
        {
            "buffer" : 0,
            "byteLength" : 3440,
            "byteOffset" : 5160,
            "target" : 34962
        },
        {
            "buffer" : 0,
            "byteLength" : 5160,
            "byteOffset" : 8600,
            "target" : 34962
        },
        {
            "buffer" : 0,
            "byteLength" : 1752,
            "byteOffset" : 13760,
            "target" : 34963
        }
    ],
    "buffers" : [
        {
            "byteLength" : 15512,
            "uri" : "unity.bin"
        }
    ]
}
