{
    "asset" : {
        "generator" : "Khronos glTF Blender I/O v3.4.50",
        "version" : "2.0"
    },
    "extensionsUsed" : [
        "KHR_materials_specular",
        "KHR_materials_ior"
    ],
    "scene" : 0,
    "scenes" : [
        {
            "name" : "Scene",
            "nodes" : [
                0,
                1
            ]
        }
    ],
    "nodes" : [
        {
            "mesh" : 0,
            "name" : "Cylinder001",
            "rotation" : [
                0.6833153963088989,
                -0.18187910318374634,
                -0.18187910318374634,
                0.6833155155181885
            ],
            "scale" : [
                0.019999999552965164,
                0.029999999329447746,
                0.019999999552965164
            ],
            "translation" : [
                0,
                0.11670809984207153,
                0.08504697680473328
            ]
        },
        {
            "mesh" : 1,
            "name" : "TextPlus001",
            "rotation" : [
                0.7224764227867126,
                0,
                0,
                0.6913955807685852
            ],
            "scale" : [
                0.019999999552965164,
                0.02539999969303608,
                0.019999999552965164
            ],
            "translation" : [
                0.014652864076197147,
                -0.026440050452947617,
                0.18757793307304382
            ]
        }
    ],
    "materials" : [
        {
            "alphaMode" : "BLEND",
            "doubleSided" : true,
            "extensions" : {
                "KHR_materials_specular" : {
                    "specularColorFactor" : [
                        2.371357614441398,
                        2.371357614441398,
                        2.371357614441398
                    ]
                },
                "KHR_materials_ior" : {
                    "ior" : 1.4500000476837158
                }
            },
            "name" : "Material #26.001",
            "pbrMetallicRoughness" : {
                "baseColorTexture" : {
                    "index" : 0
                },
                "metallicFactor" : 0,
                "roughnessFactor" : 0.5527864098548889
            }
        },
        {
            "doubleSided" : true,
            "extensions" : {
                "KHR_materials_specular" : {
                    "specularColorFactor" : [
                        2.371357614441398,
                        2.371357614441398,
                        2.371357614441398
                    ]
                },
                "KHR_materials_ior" : {
                    "ior" : 1.4500000476837158
                }
            },
            "name" : "Material #25.001",
            "pbrMetallicRoughness" : {
                "baseColorFactor" : [
                    0.8980392217636108,
                    0.8980392217636108,
                    0.8980392217636108,
                    1
                ],
                "metallicFactor" : 0,
                "roughnessFactor" : 0.5527864098548889
            }
        }
    ],
    "meshes" : [
        {
            "name" : "Mesh.002",
            "primitives" : [
                {
                    "attributes" : {
                        "POSITION" : 0,
                        "TEXCOORD_0" : 1,
                        "NORMAL" : 2
                    },
                    "indices" : 3,
                    "material" : 0
                },
                {
                    "attributes" : {
                        "POSITION" : 4,
                        "TEXCOORD_0" : 5,
                        "NORMAL" : 6
                    },
                    "indices" : 7,
                    "material" : 1
                }
            ]
        },
        {
            "name" : "Mesh.003",
            "primitives" : [
                {
                    "attributes" : {
                        "POSITION" : 8,
                        "NORMAL" : 9
                    },
                    "indices" : 10,
                    "material" : 1
                }
            ]
        }
    ],
    "textures" : [
        {
            "sampler" : 0,
            "source" : 0
        }
    ],
    "images" : [
        {
            "bufferView" : 4,
            "mimeType" : "image/png",
            "name" : "\u0411\u0435\u0437 \u0438\u043c\u0435\u043d\u0438-1"
        }
    ],
    "accessors" : [
        {
            "bufferView" : 0,
            "componentType" : 5126,
            "count" : 642,
            "max" : [
                20.549470901489258,
                3.970745325088501,
                18.244253158569336
            ],
            "min" : [
                -20.549470901489258,
                2.1961669921875,
                -18.244253158569336
            ],
            "type" : "VEC3"
        },
        {
            "bufferView" : 1,
            "componentType" : 5126,
            "count" : 642,
            "type" : "VEC2"
        },
        {
            "bufferView" : 2,
            "componentType" : 5126,
            "count" : 642,
            "type" : "VEC3"
        },
        {
            "bufferView" : 3,
            "componentType" : 5123,
            "count" : 696,
            "type" : "SCALAR"
        },
        {
            "bufferView" : 5,
            "componentType" : 5126,
            "count" : 425,
            "max" : [
                21.28769874572754,
                2.196167469024658,
                18.899667739868164
            ],
            "min" : [
                -21.28769874572754,
                0,
                -18.899667739868164
            ],
            "type" : "VEC3"
        },
        {
            "bufferView" : 6,
            "componentType" : 5126,
            "count" : 425,
            "type" : "VEC2"
        },
        {
            "bufferView" : 7,
            "componentType" : 5126,
            "count" : 425,
            "type" : "VEC3"
        },
        {
            "bufferView" : 8,
            "componentType" : 5123,
            "count" : 1164,
            "type" : "SCALAR"
        },
        {
            "bufferView" : 9,
            "componentType" : 5126,
            "count" : 657,
            "max" : [
                15.065925598144531,
                1.2005001306533813,
                0
            ],
            "min" : [
                -15.065925598144531,
                0,
                -14.52192211151123
            ],
            "type" : "VEC3"
        },
        {
            "bufferView" : 10,
            "componentType" : 5126,
            "count" : 657,
            "type" : "VEC3"
        },
        {
            "bufferView" : 11,
            "componentType" : 5123,
            "count" : 1236,
            "type" : "SCALAR"
        }
    ],
    "bufferViews" : [
        {
            "buffer" : 0,
            "byteLength" : 7704,
            "byteOffset" : 0,
            "target" : 34962
        },
        {
            "buffer" : 0,
            "byteLength" : 5136,
            "byteOffset" : 7704,
            "target" : 34962
        },
        {
            "buffer" : 0,
            "byteLength" : 7704,
            "byteOffset" : 12840,
            "target" : 34962
        },
        {
            "buffer" : 0,
            "byteLength" : 1392,
            "byteOffset" : 20544,
            "target" : 34963
        },
        {
            "buffer" : 0,
            "byteLength" : 39862,
            "byteOffset" : 21936
        },
        {
            "buffer" : 0,
            "byteLength" : 5100,
            "byteOffset" : 61800,
            "target" : 34962
        },
        {
            "buffer" : 0,
            "byteLength" : 3400,
            "byteOffset" : 66900,
            "target" : 34962
        },
        {
            "buffer" : 0,
            "byteLength" : 5100,
            "byteOffset" : 70300,
            "target" : 34962
        },
        {
            "buffer" : 0,
            "byteLength" : 2328,
            "byteOffset" : 75400,
            "target" : 34963
        },
        {
            "buffer" : 0,
            "byteLength" : 7884,
            "byteOffset" : 77728,
            "target" : 34962
        },
        {
            "buffer" : 0,
            "byteLength" : 7884,
            "byteOffset" : 85612,
            "target" : 34962
        },
        {
            "buffer" : 0,
            "byteLength" : 2472,
            "byteOffset" : 93496,
            "target" : 34963
        }
    ],
    "samplers" : [
        {
            "magFilter" : 9729,
            "minFilter" : 9987
        }
    ],
    "buffers" : [
        {
            "byteLength" : 95968,
            "uri" : "data:application/octet-stream;base64,"
        }
    ]
}
